<svg version="1.1" viewBox="0.0 0.0 540.0944881889764 188.9763779527559" fill="none" stroke="none" stroke-linecap="square" stroke-miterlimit="10" xmlns:xlink="http://www.w3.org/1999/xlink" xmlns="http://www.w3.org/2000/svg"><clipPath id="g24250cdc99b_0_0.0"><path d="m0 0l540.0945 0l0 188.97638l-540.0945 0l0 -188.97638z" clip-rule="nonzero"/></clipPath><g clip-path="url(#g24250cdc99b_0_0.0)"><path fill="#000000" fill-opacity="0.0" d="m0 0l540.0945 0l0 188.97638l-540.0945 0z" fill-rule="evenodd"/><path fill="#000000" fill-opacity="0.0" d="m8.15748 31.464174l523.77954 0l0 126.04724l-523.77954 0z" fill-rule="evenodd"/><path fill="#1c4587" d="m48.751232 126.00667q-6.25 0 -11.265625 -1.984375q-5.015625 -1.984375 -8.546877 -5.890625q-3.515625 -3.921875 -5.453125 -9.765625q-1.921875 -5.859375 -1.921875 -13.6875q0 -7.75 1.921875 -13.78125q1.9375 -6.03125 5.453125 -10.109375q3.531252 -4.09375 8.546877 -6.203125q5.015625 -2.1249962 11.265625 -2.1249962q8.53125 0 14.078125 3.4843712q5.546871 3.46875 8.890621 10.953125l-11.531246 5.984375q-1.234375 -3.875 -3.828125 -6.203125q-2.59375 -2.328125 -7.609375 -2.328125q-5.890625 0 -9.46875 3.828125q-3.5625 3.828125 -3.5625 11.125l0 9.859375q0 7.296875 3.5625 11.125q3.578125 3.828125 9.46875 3.828125q4.921875 0 7.875 -2.671875q2.953125 -2.6875 4.359375 -6.46875l10.906246 6.328125q-3.4375 7.046875 -9.031246 10.875q-5.578125 3.828125 -14.109375 3.828125zm65.91304 -1.0625q-3.515625 0 -5.859375 -2.203125q-2.328125 -2.203125 -2.9375 -5.890625l-0.53125 0q-1.0625 4.484375 -4.671875 6.828125q-3.609375 2.328125 -8.875 2.328125q-6.953125 0 -10.65625 -3.703125q-3.703125 -3.703125 -3.703125 -9.765625q0 -7.3125 5.328125 -10.875q5.328125 -3.5625 14.484375 -3.5625l7.296875 0l0 -2.90625q0 -3.34375 -1.765625 -5.3125q-1.75 -1.984375 -5.890625 -1.984375q-3.875 0 -6.171875 1.671875q-2.28125 1.671875 -3.765625 3.78125l-7.75 -6.859375q2.8125 -4.140625 7.078125 -6.46875q4.28125 -2.328125 11.578125 -2.328125q9.859375 0 14.78125 4.3125q4.9375 4.3125 4.9375 12.578125l0 20.234375l4.3125 0l0 10.125l-7.21875 0zm-18.046875 -8.015625q3.265625 0 5.59375 -1.40625q2.328125 -1.40625 2.328125 -4.5625l0 -5.46875l-6.328125 0q-7.65625 0 -7.65625 5.203125l0 1.3125q0 2.546875 1.578125 3.734375q1.578125 1.1875 4.484375 1.1875zm33.978294 8.015625l0 -46.203125l13.015625 0l0 10.03125l0.4375 0q0.359375 -1.9375 1.234375 -3.734375q0.875 -1.8125 2.328125 -3.21875q1.453125 -1.40625 3.46875 -2.234375q2.03125 -0.84375 4.765625 -0.84375l2.28125 0l0 12.140625l-3.25 0q-5.71875 0 -8.5 1.5q-2.765625 1.5 -2.765625 5.546875l0 27.015625l-13.015625 0zm54.37764 1.0625q-5.28125 0 -9.421875 -1.71875q-4.125 -1.71875 -6.984375 -4.84375q-2.859375 -3.125 -4.3125 -7.609375q-1.453125 -4.484375 -1.453125 -10.03125q0 -5.453125 1.40625 -9.890625q1.40625 -4.453125 4.171875 -7.625q2.78125 -3.171875 6.828125 -4.875q4.046875 -1.71875 9.234375 -1.71875q5.71875 0 9.8125 1.9375q4.09375 1.921875 6.6875 5.1875q2.59375 3.25 3.78125 7.515625q1.1875 4.265625 1.1875 8.9375l0 3.875l-29.65625 0l0 0.703125q0 4.578125 2.46875 7.265625q2.46875 2.671875 7.75 2.671875q4.046875 0 6.59375 -1.625q2.546875 -1.625 4.75 -3.921875l6.515625 8.109375q-3.078125 3.609375 -8.046875 5.640625q-4.96875 2.015625 -11.3125 2.015625zm-0.265625 -38.71875q-3.953125 0 -6.203125 2.59375q-2.25 2.59375 -2.25 6.90625l0 0.703125l16.203125 0l0 -0.796875q0 -4.21875 -1.890625 -6.8125q-1.890625 -2.59375 -5.859375 -2.59375zm49.721664 38.71875q-5.28125 0 -9.421875 -1.71875q-4.125 -1.71875 -6.984375 -4.84375q-2.859375 -3.125 -4.3125 -7.609375q-1.453125 -4.484375 -1.453125 -10.03125q0 -5.453125 1.40625 -9.890625q1.40625 -4.453125 4.171875 -7.625q2.78125 -3.171875 6.828125 -4.875q4.046875 -1.71875 9.234375 -1.71875q5.71875 0 9.8125 1.9375q4.09375 1.921875 6.6875 5.1875q2.59375 3.25 3.78125 7.515625q1.1875 4.265625 1.1875 8.9375l0 3.875l-29.65625 0l0 0.703125q0 4.578125 2.46875 7.265625q2.46875 2.671875 7.75 2.671875q4.046875 0 6.59375 -1.625q2.546875 -1.625 4.75 -3.921875l6.515625 8.109375q-3.078125 3.609375 -8.046875 5.640625q-4.96875 2.015625 -11.3125 2.015625zm-0.265625 -38.71875q-3.953125 0 -6.203125 2.59375q-2.25 2.59375 -2.25 6.90625l0 0.703125l16.203125 0l0 -0.796875q0 -4.21875 -1.890625 -6.8125q-1.890625 -2.59375 -5.859375 -2.59375zm30.456009 37.65625l0 -46.203125l13.015625 0l0 10.03125l0.4375 0q0.359375 -1.9375 1.234375 -3.734375q0.875 -1.8125 2.328125 -3.21875q1.453125 -1.40625 3.46875 -2.234375q2.03125 -0.84375 4.765625 -0.84375l2.28125 0l0 12.140625l-3.25 0q-5.71875 0 -8.5 1.5q-2.765625 1.5 -2.765625 5.546875l0 27.015625l-13.015625 0zm60.984528 -49.546875l0 49.546875l-13.375 0l0 -49.546875l-16.640625 0l0 -11.874996l46.640625 0l0 11.874996l-16.625 0zm21.119537 49.546875l0 -46.203125l13.015625 0l0 10.03125l0.4375 0q0.359375 -1.9375 1.234375 -3.734375q0.875 -1.8125 2.328125 -3.21875q1.453125 -1.40625 3.46875 -2.234375q2.03125 -0.84375 4.765625 -0.84375l2.28125 0l0 12.140625l-3.25 0q-5.71875 0 -8.5 1.5q-2.765625 1.5 -2.765625 5.546875l0 27.015625l-13.015625 0zm68.46063 0q-3.515625 0 -5.859375 -2.203125q-2.328125 -2.203125 -2.9375 -5.890625l-0.53125 0q-1.0625 4.484375 -4.671875 6.828125q-3.609375 2.328125 -8.875 2.328125q-6.953125 0 -10.65625 -3.703125q-3.703125 -3.703125 -3.703125 -9.765625q0 -7.3125 5.328125 -10.875q5.328125 -3.5625 14.484375 -3.5625l7.296875 0l0 -2.90625q0 -3.34375 -1.765625 -5.3125q-1.75 -1.984375 -5.890625 -1.984375q-3.875 0 -6.171875 1.671875q-2.28125 1.671875 -3.765625 3.78125l-7.75 -6.859375q2.8125 -4.140625 7.078125 -6.46875q4.28125 -2.328125 11.578125 -2.328125q9.859375 0 14.78125 4.3125q4.9375 4.3125 4.9375 12.578125l0 20.234375l4.3125 0l0 10.125l-7.21875 0zm-18.046875 -8.015625q3.265625 0 5.59375 -1.40625q2.328125 -1.40625 2.328125 -4.5625l0 -5.46875l-6.328125 0q-7.65625 0 -7.65625 5.203125l0 1.3125q0 2.546875 1.578125 3.734375q1.578125 1.1875 4.484375 1.1875zm52.63452 9.078125q-5.203125 0 -9.25 -1.71875q-4.046875 -1.71875 -6.78125 -4.84375q-2.71875 -3.125 -4.125 -7.609375q-1.40625 -4.484375 -1.40625 -10.03125q0 -5.546875 1.40625 -9.984375q1.40625 -4.453125 4.125 -7.609375q2.734375 -3.171875 6.78125 -4.84375q4.046875 -1.671875 9.25 -1.671875q7.03125 0 11.734375 3.171875q4.71875 3.15625 6.734375 8.875l-10.5625 4.578125q-0.609375 -2.640625 -2.546875 -4.484375q-1.9375 -1.84375 -5.359375 -1.84375q-3.96875 0 -6.0 2.59375q-2.015625 2.59375 -2.015625 6.984375l0 8.625q0 4.40625 2.015625 6.96875q2.03125 2.546875 6.0 2.546875q3.515625 0 5.578125 -1.890625q2.078125 -1.90625 3.046875 -4.984375l10.109375 4.40625q-2.28125 6.59375 -7.078125 9.6875q-4.796875 3.078125 -11.65625 3.078125z" fill-rule="nonzero"/><path fill="#1c4587" d="m495.8775 126.00667q-5.28125 0 -9.421875 -1.71875q-4.125 -1.71875 -6.984375 -4.84375q-2.859375 -3.125 -4.3125 -7.609375q-1.453125 -4.484375 -1.453125 -10.03125q0 -5.453125 1.40625 -9.890625q1.40625 -4.453125 4.171875 -7.625q2.78125 -3.171875 6.828125 -4.875q4.046875 -1.71875 9.234375 -1.71875q5.71875 0 9.8125 1.9375q4.09375 1.921875 6.6875 5.1875q2.59375 3.25 3.78125 7.515625q1.1875 4.265625 1.1875 8.9375l0 3.875l-29.65625 0l0 0.703125q0 4.578125 2.46875 7.265625q2.46875 2.671875 7.75 2.671875q4.046875 0 6.59375 -1.625q2.546875 -1.625 4.75 -3.921875l6.515625 8.109375q-3.078125 3.609375 -8.046875 5.640625q-4.96875 2.015625 -11.3125 2.015625zm-0.265625 -38.71875q-3.953125 0 -6.203125 2.59375q-2.25 2.59375 -2.25 6.90625l0 0.703125l16.203125 0l0 -0.796875q0 -4.21875 -1.890625 -6.8125q-1.890625 -2.59375 -5.859375 -2.59375z" fill-rule="nonzero"/></g></svg>